<svg xmlns="http://www.w3.org/2000/svg" viewBox="0 0 100 100">
  <defs>
    <linearGradient id="goldGrad" x1="0%" y1="0%" x2="100%" y2="100%">
      <stop offset="0%" style="stop-color:#d4af37;stop-opacity:1" />
      <stop offset="50%" style="stop-color:#f4d03f;stop-opacity:1" />
      <stop offset="100%" style="stop-color:#c9a227;stop-opacity:1" />
    </linearGradient>
    <linearGradient id="shieldGrad" x1="0%" y1="0%" x2="100%" y2="100%">
      <stop offset="0%" style="stop-color:#d4af37;stop-opacity:1" />
      <stop offset="100%" style="stop-color:#b8960c;stop-opacity:1" />
    </linearGradient>
  </defs>
  <!-- Background -->
  <rect width="100" height="100" rx="16" fill="#ffffff"/>
  <!-- Shield shape -->
  <path d="M50 8 L85 20 L85 50 Q85 75 50 92 Q15 75 15 50 L15 20 Z" fill="url(#shieldGrad)" opacity="0.9"/>
  <!-- Inner shield -->
  <path d="M50 15 L78 25 L78 48 Q78 68 50 82 Q22 68 22 48 L22 25 Z" fill="#ffffff" opacity="0.95"/>
  <!-- Graduation cap -->
  <polygon points="50,32 70,42 50,52 30,42" fill="url(#goldGrad)"/>
  <rect x="48" y="52" width="4" height="12" fill="#d4af37"/>
  <circle cx="50" cy="66" r="3" fill="#d4af37"/>
  <!-- Tassel -->
  <line x1="70" y1="42" x2="75" y2="55" stroke="#d4af37" stroke-width="2"/>
  <circle cx="75" cy="58" r="3" fill="#d4af37"/>
  <!-- Laurel leaves (simplified) -->
  <path d="M20 75 Q25 65 32 70 Q28 78 20 75" fill="#d4af37" opacity="0.8"/>
  <path d="M80 75 Q75 65 68 70 Q72 78 80 75" fill="#d4af37" opacity="0.8"/>
</svg>
